<svg xmlns="http://www.w3.org/2000/svg" width="26.722" height="20" viewBox="0 0 26.722 20">
  <path id="paper_plane_fill" data-name="paper plane fill" d="M13.047,14.851c-.147.085-.283.157-.412.241q-2.308,1.5-4.609,3c-.572.371-.756.3-.839-.38-.247-2.045-.5-4.091-.7-6.138a1.468,1.468,0,0,0-.877-1.364C3.882,9.347,2.193,8.393.5,7.457A2.382,2.382,0,0,1,0,6.924,2.561,2.561,0,0,1,.629,6.54Q13.293,3.277,25.961.038a.668.668,0,0,1,.2-.038c.176.014.425-.019.506.081a.677.677,0,0,1,0,.516c-.516,1.427-1.049,2.847-1.574,4.269L19.68,19.378c-.286.767-.412.8-1.049.249q-2.6-2.241-5.2-4.477C13.31,15.048,13.184,14.957,13.047,14.851Zm-4.705,1.4.129.005c.525-1.116,1.041-2.243,1.6-3.343a2.681,2.681,0,0,1,.734-.91Q18.272,6.364,25.759.753c.2-.153.4-.308.607-.463a.482.482,0,0,0-.36.054Q16.977,5.17,7.945,9.987a.536.536,0,0,0-.315.669c.083.464.125.934.185,1.4Z" fill="#d9b310"/>
</svg>
