<svg xmlns="http://www.w3.org/2000/svg" width="50" height="37.422" viewBox="0 0 50 37.422"><path d="M24.413,27.788c-.275.159-.53.294-.771.451q-4.318,2.805-8.623,5.62c-1.07.695-1.415.559-1.57-.711-.461-3.826-.928-7.656-1.305-11.485A2.746,2.746,0,0,0,10.5,19.111C7.263,17.49,4.1,15.7.932,13.953a4.458,4.458,0,0,1-.932-1,4.792,4.792,0,0,1,1.178-.718q23.695-6.1,47.4-12.166A1.25,1.25,0,0,1,48.958,0c.33.026.8-.035.946.151a1.267,1.267,0,0,1,0,.966c-.966,2.67-1.963,5.327-2.944,7.987L36.823,36.258c-.536,1.435-.771,1.488-1.963.465Q30,32.53,25.126,28.345C24.9,28.157,24.668,27.986,24.413,27.788Zm-8.8,2.626.241.01c.981-2.089,1.947-4.2,3-6.256a5.017,5.017,0,0,1,1.374-1.7Q34.189,11.907,48.2,1.409c.381-.287.758-.577,1.137-.866a.9.9,0,0,0-.673.1q-16.9,9.03-33.8,18.043a1,1,0,0,0-.589,1.252c.155.868.234,1.747.345,2.621Z" fill="#fff"/></svg>