<svg xmlns="http://www.w3.org/2000/svg" width="50" height="50" viewBox="0 0 50 50"><g transform="translate(0 0)"><path d="M3.863,144H2.97a2.679,2.679,0,0,0-2.642,2.232l3.535,2.461Zm0,0" transform="translate(-0.291 -127.929)" fill="#fff"/><path d="M72.72,32.143,87.286,22.006V7.143H82.821a2.679,2.679,0,0,1-2.679-2.679V0H49.786A1.786,1.786,0,0,0,48,1.786V22.006L62.566,32.143Zm10.1-23.214a.893.893,0,0,1,0,1.786H52.464a.893.893,0,0,1,0-1.786Zm.893,6.25a.893.893,0,0,1-.893.893H52.464a.893.893,0,0,1,0-1.786H82.821A.893.893,0,0,1,83.714,15.178ZM59.607,3.571H75.679a.893.893,0,1,1,0,1.786H59.607a.893.893,0,0,1,0-1.786ZM50.679,7.143a.893.893,0,0,1-.893-.893V4.464a2.679,2.679,0,0,1,2.679-2.679H54.25a.893.893,0,1,1,0,1.786H52.464a.893.893,0,0,0-.893.893V6.25A.893.893,0,0,1,50.679,7.143Zm.893,13.393a.893.893,0,0,1,.893-.893H82.821a.893.893,0,0,1,0,1.786H52.464A.893.893,0,0,1,51.571,20.536Zm5.357,5.357A.893.893,0,0,1,57.821,25H77.464a.893.893,0,1,1,0,1.786H57.821A.893.893,0,0,1,56.929,25.893Zm0,0" transform="translate(-42.643)" fill="#fff"/><path d="M352.893,15.407h3.2L352,11.313v3.2A.893.893,0,0,0,352.893,15.407Zm0,0" transform="translate(-312.714 -10.05)" fill="#fff"/><path d="M0,183.3v26.863a2.679,2.679,0,0,0,2.322,2.655l15.958-16.8Zm0,0" transform="translate(0 -162.847)" fill="#fff"/><path d="M57.908,304,42.64,320.071H83.122L67.854,304Zm0,0" transform="translate(-37.881 -270.072)" fill="#fff"/><path d="M300.173,212.823a2.679,2.679,0,0,0,2.322-2.655V183.3l-18.28,12.717Zm0,0" transform="translate(-252.494 -162.847)" fill="#fff"/><path d="M416.893,144H416v4.694l3.535-2.457A2.678,2.678,0,0,0,416.893,144Zm0,0" transform="translate(-369.571 -127.929)" fill="#fff"/></g></svg>