<svg xmlns="http://www.w3.org/2000/svg" width="57.133" height="50" viewBox="0 0 57.133 50"><g transform="translate(-203.002 -177.163)"><path d="M278.814,280.156v.88c0,10.192-.042,20.385.029,30.577a3.9,3.9,0,0,1-4.235,4.191c-13.884-.041-27.768-.019-41.651-.02-2.065,0-3.456-.933-3.93-2.66a4.208,4.208,0,0,1-.123-1.1q-.01-15.637,0-31.273c0-.182.016-.364.027-.594Zm-24.959,7.075v0c-2.391,0-4.783-.035-7.174.011a3.548,3.548,0,0,0-.032,7.1c4.805.042,9.612.027,14.417,0a3.33,3.33,0,0,0,2.913-1.63,3.373,3.373,0,0,0,.155-3.572,3.421,3.421,0,0,0-3.175-1.9C258.591,287.214,256.223,287.231,253.855,287.231Z" transform="translate(-22.287 -88.641)" fill="#fff"/><path d="M260.1,187.844H203.048c-.015-.211-.041-.412-.041-.613,0-2.044-.008-4.087,0-6.131a3.662,3.662,0,0,1,3.918-3.933q24.629-.01,49.257,0a3.672,3.672,0,0,1,3.949,3.972c.006,2.02,0,4.041,0,6.061C260.131,187.4,260.114,187.607,260.1,187.844Z" fill="#fff"/></g></svg>