<svg xmlns="http://www.w3.org/2000/svg" width="15.353" height="16.449" viewBox="0 0 15.353 16.449"><g transform="translate(-2)"><path d="M17.079,1.1H15.159V.274A.274.274,0,0,0,14.885,0H12.966a.274.274,0,0,0-.274.274V1.1H6.661V.274A.274.274,0,0,0,6.386,0H4.467a.274.274,0,0,0-.274.274V1.1H2.274A.274.274,0,0,0,2,1.371v14.8a.274.274,0,0,0,.274.274h14.8a.274.274,0,0,0,.274-.274V1.371A.274.274,0,0,0,17.079,1.1ZM13.24.548h1.371V2.193H13.24V.548Zm-8.5,0H6.112V2.193H4.742V.548Zm-2.193,1.1H4.193v.822a.274.274,0,0,0,.274.274H6.386a.274.274,0,0,0,.274-.274V1.645h6.031v.822a.274.274,0,0,0,.274.274h1.919a.274.274,0,0,0,.274-.274V1.645H16.8V4.112H2.548Zm0,14.256V4.661H16.8V15.9Z" fill="#328bc3"/><path d="M18.4,23H11v7.951H21.418V23H18.4Zm-1.919.548H18.4v1.919H16.483ZM18.4,27.935H16.483V26.016H18.4Zm-4.386-1.919h1.919v1.919H14.016Zm0-2.467h1.919v1.919H14.016Zm-2.467,0h1.919v1.919H11.548Zm0,2.467h1.919v1.919H11.548ZM13.467,30.4H11.548V28.483h1.919Zm2.467,0H14.016V28.483h1.919Zm2.467,0H16.483V28.483H18.4Zm2.467,0H18.951V28.483H20.87Zm0-2.467H18.951V26.016H20.87Zm0-4.386v1.919H18.951V23.548Z" transform="translate(-6.533 -16.694)" fill="#328bc3"/></g></svg>