<svg xmlns="http://www.w3.org/2000/svg" width="17.168" height="22.553" viewBox="0 0 17.168 22.553"><g transform="translate(-61.127)"><g transform="translate(61.127)"><path d="M74.929,14.645a2.975,2.975,0,0,1-3-2.707A5.088,5.088,0,0,0,73.1,10.778a7.046,7.046,0,0,0,1.27-3.312.5.5,0,0,0,.127-.179,5.465,5.465,0,0,0,.424-2.127A4.988,4.988,0,0,0,70.138,0a4.442,4.442,0,0,0-1.992.473,3.5,3.5,0,0,0-.7.126,3.956,3.956,0,0,0-2.483,2.262,5.618,5.618,0,0,0-.279,3.687,5.941,5.941,0,0,0,.258.781.5.5,0,0,0,.119.173,6.341,6.341,0,0,0,2.436,4.43,2.976,2.976,0,0,1-3,2.711,3.489,3.489,0,0,0-3.366,3.483v3.918a.508.508,0,0,0,.508.508H77.787a.508.508,0,0,0,.508-.508V18.128A3.489,3.489,0,0,0,74.929,14.645Zm-7.2-13.07a2.5,2.5,0,0,1,.582-.094.507.507,0,0,0,.213-.058,3.451,3.451,0,0,1,1.619-.407A3.974,3.974,0,0,1,73.906,5.16c0,.069,0,.137,0,.2A2.214,2.214,0,0,0,72.32,4.7H68.859a.945.945,0,0,1-.878-.593.622.622,0,0,0-1.18.078,4.71,4.71,0,0,1-1.149,2.056C65.141,4.141,66.063,2.055,67.724,1.575Zm-.442,8.783a5.972,5.972,0,0,1-1.231-3.091A5.754,5.754,0,0,0,67.529,5.2a1.98,1.98,0,0,0,.157.131,1.947,1.947,0,0,0,1.173.389H72.32a1.207,1.207,0,0,1,1.1.714s0,.007,0,.011c0,2.867-1.663,5.2-3.708,5.2A3.176,3.176,0,0,1,67.282,10.358Zm1.167,2.074a3.7,3.7,0,0,0,2.524,0,3.976,3.976,0,0,0,1.477,2.394l-2.667,3.8a.088.088,0,0,1-.144,0l-2.667-3.8A3.977,3.977,0,0,0,68.449,12.432Zm8.83,9.105H62.143v-3.41a2.473,2.473,0,0,1,2.47-2.47,4.353,4.353,0,0,0,1.481-.313l2.715,3.866a1.1,1.1,0,0,0,.9.469h0a1.1,1.1,0,0,0,.9-.469l2.714-3.865a4.181,4.181,0,0,0,1.48.313,2.473,2.473,0,0,1,2.47,2.47v3.41Z" transform="translate(-61.127)" fill="#328bc3"/></g></g></svg>