<svg xmlns="http://www.w3.org/2000/svg" width="18.546" height="18.573" viewBox="0 0 18.546 18.573"><g transform="translate(0 0)"><path d="M15.009,37.837a1.827,1.827,0,0,0-1.325-.608,1.889,1.889,0,0,0-1.341.6l-1.239,1.235c-.1-.055-.2-.106-.3-.157-.141-.071-.274-.137-.388-.208a13.463,13.463,0,0,1-3.226-2.94,7.943,7.943,0,0,1-1.058-1.67c.321-.294.619-.6.909-.894.11-.11.22-.223.329-.333a1.8,1.8,0,0,0,0-2.713L6.3,29.084c-.122-.122-.247-.247-.365-.372-.235-.243-.482-.494-.737-.729a1.856,1.856,0,0,0-1.313-.576,1.92,1.92,0,0,0-1.333.576l-.008.008L1.211,29.335a2.868,2.868,0,0,0-.851,1.823,6.872,6.872,0,0,0,.5,2.909,16.878,16.878,0,0,0,3,5A18.447,18.447,0,0,0,10,43.878a9.571,9.571,0,0,0,3.45,1.019c.082,0,.169.008.247.008a2.954,2.954,0,0,0,2.262-.972c0-.008.012-.012.016-.02a8.912,8.912,0,0,1,.686-.71c.169-.161.341-.329.51-.506a1.956,1.956,0,0,0,.592-1.356,1.884,1.884,0,0,0-.6-1.345Zm1.4,4.128s0,0,0,0c-.153.165-.31.314-.478.478a10.308,10.308,0,0,0-.757.784,1.89,1.89,0,0,1-1.474.623c-.059,0-.122,0-.18,0a8.5,8.5,0,0,1-3.058-.917A17.413,17.413,0,0,1,4.68,38.4a15.914,15.914,0,0,1-2.822-4.7,5.6,5.6,0,0,1-.439-2.454,1.8,1.8,0,0,1,.541-1.164L3.3,28.743a.891.891,0,0,1,.6-.278.838.838,0,0,1,.572.274l.012.012c.239.223.466.455.706.7.122.125.247.251.372.38l1.07,1.07a.748.748,0,0,1,0,1.215c-.114.114-.223.227-.337.337-.329.337-.643.651-.984.956-.008.008-.016.012-.02.02a.8.8,0,0,0-.2.89l.012.035a8.592,8.592,0,0,0,1.266,2.066l0,0a14.388,14.388,0,0,0,3.481,3.167,5.353,5.353,0,0,0,.482.263c.141.071.274.137.388.208.016.008.031.02.047.027a.85.85,0,0,0,.388.1.838.838,0,0,0,.6-.27l1.341-1.341a.887.887,0,0,1,.592-.294.8.8,0,0,1,.564.286l.008.008,2.16,2.16A.775.775,0,0,1,16.413,41.965Z" transform="translate(-0.344 -26.332)" fill="#fff"/><path d="M245.379,86.975a5.045,5.045,0,0,1,4.108,4.108.526.526,0,0,0,.521.439.7.7,0,0,0,.09-.008.53.53,0,0,0,.435-.612,6.1,6.1,0,0,0-4.971-4.97.532.532,0,0,0-.612.431A.523.523,0,0,0,245.379,86.975Z" transform="translate(-235.356 -82.557)" fill="#fff"/><path d="M257.575,8.193A10.045,10.045,0,0,0,249.39.008a.528.528,0,1,0-.172,1.043,8.972,8.972,0,0,1,7.315,7.315.526.526,0,0,0,.521.439.7.7,0,0,0,.09-.008A.519.519,0,0,0,257.575,8.193Z" transform="translate(-239.037 0)" fill="#fff"/></g></svg>