<svg xmlns="http://www.w3.org/2000/svg" width="18.945" height="14.414" viewBox="0 0 18.945 14.414"><g transform="translate(0 0)"><path d="M16.632,57.8H2.317A2.318,2.318,0,0,0,0,60.113V69.9a2.319,2.319,0,0,0,2.317,2.317H16.628A2.319,2.319,0,0,0,18.945,69.9V60.121A2.314,2.314,0,0,0,16.632,57.8Zm1.258,12.1a1.26,1.26,0,0,1-1.258,1.258H2.317A1.26,1.26,0,0,1,1.058,69.9v-9.78a1.26,1.26,0,0,1,1.258-1.258H16.628a1.26,1.26,0,0,1,1.258,1.258l0,9.78Z" transform="translate(0 -57.8)" fill="#fff"/><path d="M65.515,113.938l4.633-4.155a.53.53,0,0,0-.71-.788l-6.39,5.735L61.8,113.617s-.008-.008-.008-.012a.783.783,0,0,0-.086-.074l-5.072-4.543a.53.53,0,1,0-.706.792l4.688,4.19-4.669,4.375a.531.531,0,0,0-.024.749.541.541,0,0,0,.388.169.53.53,0,0,0,.361-.141l4.739-4.433,1.286,1.149a.528.528,0,0,0,.706,0l1.321-1.184,4.712,4.477a.531.531,0,0,0,.749-.02.531.531,0,0,0-.02-.749Z" transform="translate(-53.567 -106.851)" fill="#fff"/></g></svg>