<svg xmlns="http://www.w3.org/2000/svg" width="14.111" height="20.07" viewBox="0 0 14.111 20.07"><g transform="translate(0)"><path d="M83.056,0a7.057,7.057,0,0,0-6,10.766l5.6,9.026a.588.588,0,0,0,.5.278h0a.588.588,0,0,0,.5-.286l5.458-9.113A7.057,7.057,0,0,0,83.056,0Zm5.051,10.067-4.962,8.286-5.092-8.206a5.884,5.884,0,1,1,10.055-.079Z" transform="translate(-76)" fill="#fff"/></g><g transform="translate(3.528 3.528)"><path d="M169.528,90a3.528,3.528,0,1,0,3.528,3.528A3.532,3.532,0,0,0,169.528,90Zm0,5.888a2.36,2.36,0,1,1,2.356-2.36A2.362,2.362,0,0,1,169.528,95.888Z" transform="translate(-166 -90)" fill="#fff"/></g></svg>