<svg xmlns="http://www.w3.org/2000/svg" width="218.232" height="71" viewBox="0 0 218.232 71">
  <g id="Group_6229" data-name="Group 6229" transform="translate(-10417.475 10)">
    <g id="Group_6191" data-name="Group 6191" transform="translate(10417.475 -10)">
      <circle id="Ellipse_46" data-name="Ellipse 46" cx="7.925" cy="7.925" r="7.925" transform="translate(0 28.291)" fill="#fff"/>
      <circle id="Ellipse_47" data-name="Ellipse 47" cx="7.925" cy="7.925" r="7.925" transform="translate(60.334 28.36)" fill="#fff"/>
      <path id="Path_7104" data-name="Path 7104" d="M579.17-717.461v-6.162a9.826,9.826,0,0,0-9.826-9.826v29.607A23.558,23.558,0,0,1,579.17-717.461Z" transform="translate(-537.074 733.448)" fill="#fff"/>
      <path id="Path_7105" data-name="Path 7105" d="M651.014-540.356a11.639,11.639,0,0,1-8.522,3.7,11.622,11.622,0,0,1-7.786-2.992v11.358a21.442,21.442,0,0,0,7.786,1.46,21.506,21.506,0,0,0,20.4-14.7A8.865,8.865,0,0,1,656.3-538.6,8.846,8.846,0,0,1,651.014-540.356Z" transform="translate(-588.045 583.786)" fill="#fff"/>
      <path id="Path_7106" data-name="Path 7106" d="M429.732-535.068v27.322a9.826,9.826,0,0,0,9.826-9.826v-5.678C435.4-526.026,431.505-528.577,429.732-535.068Z" transform="translate(-428.201 578.746)" fill="#fff"/>
      <path id="Path_7107" data-name="Path 7107" d="M440.984-655.286a11.645,11.645,0,0,1,9.558-4.994,11.631,11.631,0,0,1,7.416,2.657v-11.169a21.464,21.464,0,0,0-7.416-1.313,21.508,21.508,0,0,0-20.81,16.089,8.865,8.865,0,0,1,6.394-2.718A8.851,8.851,0,0,1,440.984-655.286Z" transform="translate(-428.201 684.051)" fill="#fff"/>
      <path id="Path_7108" data-name="Path 7108" d="M462.973-549.178a11.282,11.282,0,0,1-9.977,6.56,11.631,11.631,0,0,1-8.8-4.018,8.859,8.859,0,0,1-5.62,2,8.859,8.859,0,0,1-5.7-2.069A21.506,21.506,0,0,0,453-532.793c6.58,0,12.934-2.6,16.411-7.614a24.941,24.941,0,0,0,2.99-5.794Z" transform="translate(-430.654 589.749)" fill="#fff"/>
      <path id="Path_7109" data-name="Path 7109" d="M595.747-670.1A21.453,21.453,0,0,0,579.34-662.5a21.429,21.429,0,0,0-4.578,9.255l1.7.458h0l4.4,1.187h0l3.384.914c.019-.09.04-.176.062-.254,1.52-5.223,5.795-9.344,11.445-9.344a11.645,11.645,0,0,1,9.412,4.785,8.845,8.845,0,0,1,4.4-1.17,8.88,8.88,0,0,1,7.251,3.753A21.5,21.5,0,0,0,595.747-670.1Z" transform="translate(-541.299 684.051)" fill="#fff"/>
      <path id="Path_7110" data-name="Path 7110" d="M600.755-576.859l-1.293-.4,1.58-3.757a.41.41,0,0,1,.455-.361h0a.411.411,0,0,1,.361.455Z" transform="translate(-560.56 614.865)" fill="#fff"/>
      <path id="Path_7111" data-name="Path 7111" d="M583.878-566.162a6.684,6.684,0,0,0-.444,2.347A8.953,8.953,0,0,0,583.878-566.162Z" transform="translate(-548.055 602.994)" fill="#fff"/>
      <path id="Path_7112" data-name="Path 7112" d="M583.322-569.868s.216-.815-.141-1.1a2.76,2.76,0,0,1-.431-.719,10.961,10.961,0,0,1,.311-1.4,6.272,6.272,0,0,0,.268-1.684l-.351-1.725s-.054-.782.9-.733c.383.02.63.578.63.578l.612,1.966a2.68,2.68,0,0,1,1.169.854s.812,1.279.29,2.186c0,0-.627.651-.586.994l-.334,1.6Z" transform="translate(-547.527 611.624)" fill="#fff"/>
      <path id="Path_7113" data-name="Path 7113" d="M589.327-590.83l2.373.7a2.568,2.568,0,0,0,.616,1.493s.521.424.12,1.383a5.936,5.936,0,0,0,.373,3.462c.619,1.251-1.256,1.839-1.7-.043a2.484,2.484,0,0,0-1.37-1.455l-.612-1.966a1.148,1.148,0,0,0-.46-.532A7.619,7.619,0,0,0,589.327-590.83Z" transform="translate(-552.144 622.231)" fill="#fff"/>
      <path id="Path_7114" data-name="Path 7114" d="M602.5-560.078s.595.395.411.907a.483.483,0,0,1-.628.321,1.012,1.012,0,0,1-.56-.761Z" transform="translate(-562.324 598.25)" fill="#fff"/>
      <path id="Path_7115" data-name="Path 7115" d="M584.887-575.024s-.51-.622-.158-.983c0,0,.909-.79,1.03.737Z" transform="translate(-548.975 610.831)" fill="#fff"/>
      <path id="Path_7116" data-name="Path 7116" d="M582.383-552.069s-.336,1.086.258,1.151c0,0,.545,0,.216-.4A2.239,2.239,0,0,1,582.383-552.069Z" transform="translate(-547.168 592.004)" fill="#fff"/>
    </g>
    <text id="Pharma_" data-name="Pharma " transform="translate(10499.213 31.97)" fill="#fff" font-size="21" font-family="Poppins-Light, Poppins" font-weight="300" letter-spacing="-0.04em"><tspan x="0" y="0">Pharma </tspan></text>
    <text id="Baba" transform="translate(10583.707 31.97)" fill="#fff" font-size="21" font-family="Poppins-Thin, Poppins" font-weight="200" letter-spacing="-0.04em"><tspan x="0" y="0">Baba</tspan></text>
  </g>
</svg>
