<svg xmlns="http://www.w3.org/2000/svg" width="20.309" height="17.934" viewBox="0 0 20.309 17.934"><g transform="translate(0 -29.933)"><g transform="translate(0 29.933)"><path d="M17.83,34.205V30.937a1,1,0,0,0-1.5-.875,23.371,23.371,0,0,1-9.75,2.927c-.026,0-3.148.016-3.148.016a1.535,1.535,0,0,0-1.522,1.352H1.272A1.274,1.274,0,0,0,0,35.63v2.8A1.274,1.274,0,0,0,1.272,39.7h.641a1.536,1.536,0,0,0,.9,1.222L5.1,47.212a1,1,0,0,0,.935.655H8.32a1,1,0,0,0,.935-1.335L7.3,41.128a23.339,23.339,0,0,1,9.036,2.863,1,1,0,0,0,1-.01.994.994,0,0,0,.5-.865V39.848a2.845,2.845,0,0,0,0-5.643ZM1.9,38.716h-.63a.291.291,0,0,1-.291-.291v-2.8a.291.291,0,0,1,.291-.291H1.9Zm1.308,1.3a.552.552,0,0,1-.327-.5V34.538h0a.552.552,0,0,1,.552-.552H6.106v6.082l-2.706,0A.514.514,0,0,1,3.21,40.02Zm5.123,6.847a.011.011,0,0,1,0,.013.011.011,0,0,1-.011.006H6.032a.014.014,0,0,1-.013-.009L3.908,41.049H6.224Zm8.515-3.751a.018.018,0,0,1-.011.019.023.023,0,0,1-.026,0,24.323,24.323,0,0,0-9.725-3.013V33.932a24.329,24.329,0,0,0,9.725-3.013.023.023,0,0,1,.026,0,.018.018,0,0,1,.011.019Zm.981-4.261V35.2a1.865,1.865,0,0,1,0,3.657Z" transform="translate(0 -29.933)" fill="#fff"/></g></g></svg>