<svg xmlns="http://www.w3.org/2000/svg" width="17" height="17" viewBox="0 0 17 17">
  <g id="translation" opacity="0.9">
    <path id="Path_7099" data-name="Path 7099" d="M44.559,37.144H41.772a15.24,15.24,0,0,0-.534-3.823h1.827a.271.271,0,0,0,0-.543H41.072a8.551,8.551,0,0,0-1.105-2.266.271.271,0,0,0-.442.315,7.831,7.831,0,0,1,.975,1.951H37.686V30.271a.271.271,0,0,0-.543,0v2.507H34.329a7.831,7.831,0,0,1,.975-1.951.271.271,0,0,0-.442-.315,8.551,8.551,0,0,0-1.105,2.266H31.765a.271.271,0,1,0,0,.543h1.827a15.243,15.243,0,0,0-.534,3.823H30.271a.271.271,0,1,0,0,.543h2.786a15.24,15.24,0,0,0,.534,3.823H31.765a.271.271,0,1,0,0,.543h1.993a8.55,8.55,0,0,0,1.105,2.267A.271.271,0,1,0,35.3,44a7.831,7.831,0,0,1-.976-1.951h2.814v2.507a.271.271,0,1,0,.543,0V42.052H40.5A7.829,7.829,0,0,1,39.525,44a.271.271,0,1,0,.442.315,8.551,8.551,0,0,0,1.105-2.267h1.993a.271.271,0,1,0,0-.543H41.238a15.24,15.24,0,0,0,.534-3.823h2.786a.271.271,0,1,0,0-.543Zm-3.883-3.823a14.584,14.584,0,0,1,.554,3.823H37.686V33.321Zm-6.521,0h2.989v3.823H33.6A14.585,14.585,0,0,1,34.155,33.321Zm0,8.189a14.584,14.584,0,0,1-.554-3.823h3.543v3.823Zm6.521,0H37.686V37.686H41.23A14.585,14.585,0,0,1,40.675,41.509Z" transform="translate(-28.915 -28.915)" fill="#fafafa"/>
    <path id="Path_7100" data-name="Path 7100" d="M14.51,2.49A8.5,8.5,0,0,0,1.4,13.177L.363,16.293a.271.271,0,0,0,.343.343L3.823,15.6A8.5,8.5,0,0,0,14.51,2.49ZM8.5,16.457a7.914,7.914,0,0,1-4.484-1.383.271.271,0,0,0-.239-.033L1.05,15.95l.909-2.728a.271.271,0,0,0-.033-.239A7.958,7.958,0,1,1,8.5,16.457Z" fill="#fafafa"/>
  </g>
</svg>
