<svg xmlns="http://www.w3.org/2000/svg" width="18.285" height="16" viewBox="0 0 18.285 16">
  <g id="Login" transform="translate(0 -38.25)" opacity="0.9">
    <g id="_x36__30_" transform="translate(0 38.25)">
      <g id="Group_3" data-name="Group 3">
        <path id="Path_8" data-name="Path 8" d="M9.91,49.817a.571.571,0,0,0,.808.808l3.942-3.943a.659.659,0,0,0,0-.865l-3.942-3.942a.571.571,0,0,0-.808.808l3,3H.571a.571.571,0,0,0,0,1.143H12.906ZM16,38.25H4.571a2.286,2.286,0,0,0-2.286,2.286v2.286H3.429V40.536a1.143,1.143,0,0,1,1.143-1.143H16a1.143,1.143,0,0,1,1.143,1.143V51.964A1.143,1.143,0,0,1,16,53.107H4.571a1.143,1.143,0,0,1-1.143-1.143V49.679H2.286v2.286A2.286,2.286,0,0,0,4.571,54.25H16a2.286,2.286,0,0,0,2.286-2.286V40.536A2.286,2.286,0,0,0,16,38.25Z" transform="translate(0 -38.25)" fill="#fafafa"/>
      </g>
    </g>
  </g>
</svg>
