<svg id="Group_6190" data-name="Group 6190" xmlns="http://www.w3.org/2000/svg" width="87.744" height="81.773" viewBox="0 0 87.744 81.773">
  <circle id="Ellipse_46" data-name="Ellipse 46" cx="9.128" cy="9.128" r="9.128" transform="translate(0 32.584)" fill="#0B3C5D"/>
  <circle id="Ellipse_47" data-name="Ellipse 47" cx="9.128" cy="9.128" r="9.128" transform="translate(69.489 32.664)" fill="#d9b310"/>
  <path id="Path_7104" data-name="Path 7104" d="M580.661-715.035v-7.1a11.317,11.317,0,0,0-11.317-11.316v34.1A27.132,27.132,0,0,1,580.661-715.035Z" transform="translate(-532.177 733.448)" fill="#d9b310"/>
  <path id="Path_7105" data-name="Path 7105" d="M653.489-540.178a13.405,13.405,0,0,1-9.815,4.263,13.386,13.386,0,0,1-8.968-3.445v13.081a24.7,24.7,0,0,0,8.968,1.681,24.769,24.769,0,0,0,23.492-16.932,10.21,10.21,0,0,1-7.585,3.374A10.188,10.188,0,0,1,653.489-540.178Z" transform="translate(-580.964 590.198)" fill="#d9b310"/>
  <path id="Path_7106" data-name="Path 7106" d="M429.732-535.068V-503.6a11.317,11.317,0,0,0,11.317-11.316v-6.539C436.262-524.655,431.774-527.592,429.732-535.068Z" transform="translate(-427.968 585.374)" fill="#0B3C5D"/>
  <path id="Path_7107" data-name="Path 7107" d="M442.691-653.037a13.412,13.412,0,0,1,11.009-5.752,13.4,13.4,0,0,1,8.541,3.06v-12.864A24.721,24.721,0,0,0,453.7-670.1a24.771,24.771,0,0,0-23.968,18.531A10.21,10.21,0,0,1,437.1-654.7,10.194,10.194,0,0,1,442.691-653.037Z" transform="translate(-427.968 686.168)" fill="#0B3C5D"/>
  <path id="Path_7108" data-name="Path 7108" d="M467.54-549.178a12.994,12.994,0,0,1-11.491,7.555,13.4,13.4,0,0,1-10.131-4.628,10.2,10.2,0,0,1-6.472,2.305,10.2,10.2,0,0,1-6.566-2.383,24.769,24.769,0,0,0,23.17,16.022c7.579,0,14.9-2.994,18.9-8.769a28.728,28.728,0,0,0,3.443-6.674Z" transform="translate(-430.316 595.906)" fill="#0B3C5D"/>
  <path id="Path_7109" data-name="Path 7109" d="M598.931-670.1a24.708,24.708,0,0,0-18.9,8.763,24.68,24.68,0,0,0-5.273,10.66l1.955.528h0l5.063,1.368h0l3.9,1.053c.022-.1.046-.2.071-.292,1.75-6.016,6.674-10.762,13.182-10.762a13.412,13.412,0,0,1,10.84,5.511,10.188,10.188,0,0,1,5.067-1.348,10.228,10.228,0,0,1,8.352,4.322A24.767,24.767,0,0,0,598.931-670.1Z" transform="translate(-536.221 686.168)" fill="#d9b310"/>
  <path id="Path_7110" data-name="Path 7110" d="M600.951-576.173l-1.489-.466,1.82-4.327a.472.472,0,0,1,.524-.416h0a.473.473,0,0,1,.416.524Z" transform="translate(-554.658 619.945)" fill="#0B3C5D"/>
  <path id="Path_7111" data-name="Path 7111" d="M583.947-566.162a7.7,7.7,0,0,0-.511,2.7A10.313,10.313,0,0,0,583.947-566.162Z" transform="translate(-542.688 608.583)" fill="#d9b310"/>
  <path id="Path_7112" data-name="Path 7112" d="M583.409-568.751s.249-.939-.162-1.265a3.177,3.177,0,0,1-.5-.829,12.618,12.618,0,0,1,.359-1.611,7.226,7.226,0,0,0,.309-1.939l-.4-1.987s-.063-.9,1.041-.844c.442.023.726.665.726.665l.7,2.265a3.086,3.086,0,0,1,1.346.983s.935,1.473.334,2.518c0,0-.722.75-.675,1.145l-.385,1.841Z" transform="translate(-542.183 616.843)" fill="#0B3C5D"/>
  <path id="Path_7113" data-name="Path 7113" d="M589.427-590.83l2.733.808a2.958,2.958,0,0,0,.709,1.719s.6.488.139,1.593a6.837,6.837,0,0,0,.43,3.988c.713,1.441-1.446,2.118-1.957-.05a2.862,2.862,0,0,0-1.578-1.676l-.7-2.265a1.322,1.322,0,0,0-.53-.613A8.775,8.775,0,0,0,589.427-590.83Z" transform="translate(-546.602 626.995)" fill="#d9b310"/>
  <path id="Path_7114" data-name="Path 7114" d="M602.617-560.078s.685.455.473,1.044a.556.556,0,0,1-.723.369,1.165,1.165,0,0,1-.645-.877Z" transform="translate(-556.345 604.042)" fill="#fff"/>
  <path id="Path_7115" data-name="Path 7115" d="M584.93-574.844s-.587-.717-.182-1.132c0,0,1.047-.91,1.186.849Z" transform="translate(-543.568 616.084)" fill="#0b3c5d"/>
  <path id="Path_7116" data-name="Path 7116" d="M582.4-552.069s-.387,1.251.3,1.325c0,0,.628,0,.249-.465A2.579,2.579,0,0,1,582.4-552.069Z" transform="translate(-541.839 598.064)" fill="#d9b310"/>
</svg>
